<svg width="59" height="52" viewBox="0 0 59 52" fill="none" xmlns="http://www.w3.org/2000/svg">
<path d="M37.5763 50.4C35.0963 50.4 32.9896 49.9733 31.2563 49.12C29.5496 48.24 28.2429 47 27.3363 45.4C26.4296 43.7733 25.9229 41.8267 25.8163 39.56C25.7896 38.4667 25.7763 37.2933 25.7763 36.04C25.7763 34.7867 25.7896 33.5867 25.8163 32.44C25.9229 30.2 26.4296 28.2667 27.3363 26.64C28.2696 25.0133 29.5896 23.7733 31.2963 22.92C33.0296 22.04 35.1229 21.6 37.5763 21.6C39.3896 21.6 41.0163 21.84 42.4563 22.32C43.8963 22.8 45.1229 23.4667 46.1363 24.32C47.1496 25.1467 47.9363 26.12 48.4963 27.24C49.0563 28.36 49.3496 29.5733 49.3763 30.88C49.4029 31.12 49.3229 31.32 49.1363 31.48C48.9763 31.64 48.7763 31.72 48.5363 31.72H44.7363C44.4429 31.72 44.2029 31.6533 44.0163 31.52C43.8296 31.36 43.6963 31.1067 43.6163 30.76C43.1896 29 42.4563 27.8 41.4163 27.16C40.3763 26.52 39.0829 26.2 37.5363 26.2C35.7496 26.2 34.3229 26.7067 33.2563 27.72C32.1896 28.7067 31.6163 30.3467 31.5363 32.64C31.4563 34.8267 31.4563 37.0667 31.5363 39.36C31.6163 41.6533 32.1896 43.3067 33.2563 44.32C34.3229 45.3067 35.7496 45.8 37.5363 45.8C39.0829 45.8 40.3763 45.48 41.4163 44.84C42.4563 44.1733 43.1896 42.9733 43.6163 41.24C43.6963 40.8667 43.8296 40.6133 44.0163 40.48C44.2029 40.3467 44.4429 40.28 44.7363 40.28H48.5363C48.7763 40.28 48.9763 40.36 49.1363 40.52C49.3229 40.68 49.4029 40.88 49.3763 41.12C49.3496 42.4267 49.0563 43.64 48.4963 44.76C47.9363 45.88 47.1496 46.8667 46.1363 47.72C45.1229 48.5467 43.8963 49.2 42.4563 49.68C41.0163 50.16 39.3896 50.4 37.5763 50.4Z" fill="#DF924B"/>
<path d="M8.66563 50C8.45229 50 8.25229 49.92 8.06563 49.76C7.90563 49.6 7.82563 49.4 7.82563 49.16C7.82563 49.0533 7.85229 48.9333 7.90563 48.8L17.5456 23C17.6256 22.7333 17.7723 22.5067 17.9856 22.32C18.2256 22.1067 18.5456 22 18.9456 22H23.3056C23.7056 22 24.0123 22.1067 24.2256 22.32C24.439 22.5067 24.599 22.7333 24.7056 23L34.3456 48.8C34.3723 48.9333 34.3856 49.0533 34.3856 49.16C34.3856 49.4 34.3056 49.6 34.1456 49.76C33.9856 49.92 33.799 50 33.5856 50H30.1056C29.7323 50 29.4523 49.92 29.2656 49.76C29.1056 49.5733 28.999 49.4 28.9456 49.24L27.0656 44.36H15.1856L13.3056 49.24C13.2523 49.4 13.1323 49.5733 12.9456 49.76C12.7856 49.92 12.519 50 12.1456 50H8.66563ZM16.5856 39.76H25.6656L21.1056 27.4L16.5856 39.76Z" fill="#2C29A3"/>
<path d="M3 22L14.4506 14.2857V10.9107V7.53571H12.1605V4.96429H20.3395V7.53571H17.7222V12.0357L29.1728 4L56 22" stroke="#646464" stroke-width="5" stroke-linecap="round"/>
</svg>
